<?xml version="1.0" encoding="UTF-8" standalone="no"?>
<!DOCTYPE svg PUBLIC "-//W3C//DTD SVG 1.1//EN" "http://www.w3.org/Graphics/SVG/1.1/DTD/svg11.dtd">
<svg width="100%" height="100%" viewBox="0 0 500 500" version="1.1" xmlns="http://www.w3.org/2000/svg" xmlns:xlink="http://www.w3.org/1999/xlink" xml:space="preserve" xmlns:serif="http://www.serif.com/" style="fill-rule:evenodd;clip-rule:evenodd;stroke-linejoin:round;stroke-miterlimit:2;">
    <g id="Star_Medal">
        <path d="M172.312,351.289L155.17,483.164C154.854,485.505 155.886,487.825 157.835,489.159C159.785,490.492 162.32,490.613 164.388,489.47L250,442.141C250,442.141 335.612,489.47 335.612,489.47C337.68,490.613 340.215,490.492 342.165,489.159C344.114,487.825 345.146,485.505 344.83,483.164L327.688,351.289L343.292,351.702C349.092,351.855 354.781,350.09 359.475,346.679C364.169,343.269 367.606,338.404 369.252,332.841C369.252,332.841 381.478,291.524 381.478,291.524C381.478,291.524 416.994,267.129 416.994,267.129C421.777,263.844 425.341,259.073 427.134,253.554C428.927,248.036 428.848,242.081 426.91,236.612C426.91,236.612 412.516,196 412.516,196C412.516,196 426.91,155.388 426.91,155.388C428.848,149.919 428.927,143.964 427.134,138.446C425.341,132.927 421.777,128.156 416.994,124.871C416.994,124.871 381.478,100.476 381.478,100.476C381.478,100.476 369.252,59.159 369.252,59.159C367.606,53.596 364.169,48.731 359.475,45.321C354.781,41.91 349.092,40.145 343.292,40.298C343.292,40.298 300.22,41.439 300.22,41.439C300.22,41.439 266.044,15.199 266.044,15.199C261.442,11.665 255.802,9.75 250,9.75C244.198,9.75 238.558,11.665 233.956,15.199L199.78,41.439C199.78,41.439 156.708,40.298 156.708,40.298C150.908,40.145 145.219,41.91 140.525,45.321C135.831,48.731 132.394,53.596 130.748,59.159C130.748,59.159 118.522,100.476 118.522,100.476C118.522,100.476 83.006,124.871 83.006,124.871C78.223,128.156 74.659,132.927 72.866,138.446C71.073,143.964 71.152,149.919 73.09,155.388C73.09,155.388 87.484,196 87.484,196C87.484,196 73.09,236.612 73.09,236.612C71.152,242.081 71.073,248.036 72.866,253.554C74.659,259.073 78.223,263.844 83.006,267.129C83.006,267.129 118.522,291.524 118.522,291.524C118.522,291.524 130.748,332.841 130.748,332.841C132.394,338.404 135.831,343.269 140.525,346.679C145.219,350.09 150.908,351.855 156.708,351.702L172.312,351.289ZM184.961,350.954L169.22,472.515L243.75,431.314L243.75,381.498C240.217,380.635 236.877,379.044 233.956,376.801C233.956,376.801 199.78,350.561 199.78,350.561L184.961,350.954ZM315.039,350.954L300.22,350.561C300.22,350.561 266.044,376.801 266.044,376.801C263.123,379.044 259.783,380.635 256.25,381.498L256.25,431.314L330.78,472.515L315.039,350.954ZM241.568,25.114C243.987,23.257 246.951,22.25 250,22.25C253.049,22.25 256.013,23.257 258.432,25.114C258.432,25.114 294.365,52.702 294.365,52.702C295.502,53.575 296.904,54.031 298.336,53.993L343.623,52.794C346.671,52.713 349.661,53.641 352.128,55.433C354.595,57.226 356.401,59.782 357.266,62.706C357.266,62.706 370.12,106.147 370.12,106.147C370.527,107.521 371.393,108.714 372.575,109.525L409.917,135.174C412.431,136.901 414.304,139.408 415.246,142.308C416.188,145.208 416.147,148.338 415.128,151.212C415.128,151.212 399.994,193.912 399.994,193.912C399.515,195.263 399.515,196.737 399.994,198.088L415.128,240.788C416.147,243.662 416.188,246.792 415.246,249.692C414.304,252.592 412.431,255.099 409.917,256.826C409.917,256.826 372.575,282.475 372.575,282.475C371.393,283.286 370.527,284.479 370.12,285.853L357.266,329.294C356.401,332.218 354.595,334.774 352.128,336.567C349.661,338.359 346.671,339.287 343.623,339.206C343.623,339.206 298.336,338.007 298.336,338.007C296.904,337.969 295.502,338.425 294.365,339.298L258.432,366.886C256.013,368.743 253.049,369.75 250,369.75C246.951,369.75 243.987,368.743 241.568,366.886C241.568,366.886 205.635,339.298 205.635,339.298C204.498,338.425 203.096,337.969 201.664,338.007L156.377,339.206C153.329,339.287 150.339,338.359 147.872,336.567C145.405,334.774 143.599,332.218 142.734,329.294C142.734,329.294 129.88,285.853 129.88,285.853C129.473,284.479 128.607,283.286 127.425,282.475L90.083,256.826C87.569,255.099 85.696,252.592 84.754,249.692C83.812,246.792 83.853,243.662 84.872,240.788C84.872,240.788 100.006,198.088 100.006,198.088C100.485,196.737 100.485,195.263 100.006,193.912L84.872,151.212C83.853,148.338 83.812,145.208 84.754,142.308C85.696,139.408 87.569,136.901 90.083,135.174C90.083,135.174 127.425,109.525 127.425,109.525C128.607,108.714 129.473,107.521 129.88,106.147L142.734,62.706C143.599,59.782 145.405,57.226 147.872,55.433C150.339,53.641 153.329,52.713 156.377,52.794C156.377,52.794 201.664,53.993 201.664,53.993C203.096,54.031 204.498,53.575 205.635,52.702L241.568,25.114ZM250,59.75C174.802,59.75 113.75,120.802 113.75,196C113.75,271.198 174.802,332.25 250,332.25C325.198,332.25 386.25,271.198 386.25,196C386.25,120.802 325.198,59.75 250,59.75ZM250,72.25C318.299,72.25 373.75,127.701 373.75,196C373.75,264.299 318.299,319.75 250,319.75C181.701,319.75 126.25,264.299 126.25,196C126.25,127.701 181.701,72.25 250,72.25ZM250,106.75C200.742,106.75 160.75,146.742 160.75,196C160.75,245.258 200.742,285.25 250,285.25C299.258,285.25 339.25,245.258 339.25,196C339.25,146.742 299.258,106.75 250,106.75ZM210.474,261.789L250,239.487L289.526,261.789C277.978,268.746 264.453,272.75 250,272.75C235.547,272.75 222.022,268.746 210.474,261.789ZM291.452,209.37L324.799,178.743C326.075,184.287 326.75,190.065 326.75,196C326.75,219.056 316.561,239.752 300.443,253.827L291.452,209.37ZM175.201,178.743L208.548,209.37L199.557,253.827C183.439,239.752 173.25,219.056 173.25,196C173.25,190.065 173.925,184.287 175.201,178.743ZM250,134.663L265.716,169.044C266.626,171.035 268.512,172.404 270.686,172.655L308.241,176.978C308.241,176.978 280.399,202.549 280.399,202.549C278.787,204.03 278.067,206.246 278.501,208.391L285.995,245.444C285.995,245.444 253.071,226.867 253.071,226.867C251.165,225.792 248.835,225.792 246.929,226.867L214.005,245.444C214.005,245.444 221.499,208.391 221.499,208.391C221.933,206.246 221.213,204.03 219.601,202.549L191.759,176.978C191.759,176.978 229.314,172.655 229.314,172.655C231.488,172.404 233.374,171.035 234.284,169.044L250,134.663ZM275.619,160.64L256.836,119.551C285.525,122.088 309.7,140.438 320.577,165.815L275.619,160.64ZM243.164,119.551L224.381,160.64L179.423,165.815C190.304,140.436 214.477,122.089 243.164,119.551Z"/>
    </g>
</svg>
