<?xml version="1.0" encoding="UTF-8" standalone="no"?> <svg id="Layer_1" data-name="Layer 1" xmlns="http://www.w3.org/2000/svg" viewBox="0 0 64 64"><path d="M5,63H25a4,4,0,0,0,4-4V21a4,4,0,0,0-4-4H5a4,4,0,0,0-4,4V59A4,4,0,0,0,5,63ZM18.613,19l-.334,1H11.721l-.334-1ZM3,21a2,2,0,0,1,2-2H9.279l.772,2.316A1,1,0,0,0,11,22h8a1,1,0,0,0,.949-.684L20.721,19H25a2,2,0,0,1,2,2V59a2,2,0,0,1-2,2H5a2,2,0,0,1-2-2Z"/><path d="M16.45,44.056A3.993,3.993,0,0,0,13,48v7a1,1,0,0,0,1,1H24a1,1,0,0,0,1-1V48a3.993,3.993,0,0,0-3.45-3.944,4,4,0,1,0-5.1,0ZM19,39a2,2,0,1,1-2,2A2,2,0,0,1,19,39Zm2,7a2,2,0,0,1,2,2v6H15V48a2,2,0,0,1,2-2Z"/><path d="M6,34H9.586l2.707,2.707A1,1,0,0,0,14,36V34h1a1,1,0,0,0,1-1V27a1,1,0,0,0-1-1H6a1,1,0,0,0-1,1v6A1,1,0,0,0,6,34Zm1-6h7v4H13a1,1,0,0,0-1,1v.586l-1.293-1.293A1,1,0,0,0,10,32H7Z"/><path d="M48,9a8,8,0,1,0-8,8A8.009,8.009,0,0,0,48,9ZM34,9a6,6,0,1,1,6,6A6.006,6.006,0,0,1,34,9Z"/><path d="M41,14V12.949A2.5,2.5,0,0,0,40.5,8h-1a.5.5,0,0,1,0-1h1a.5.5,0,0,1,.5.5h2a2.5,2.5,0,0,0-2-2.449V4H39V5.051A2.5,2.5,0,0,0,39.5,10h1a.5.5,0,0,1,0,1h-1a.5.5,0,0,1-.5-.5H37a2.5,2.5,0,0,0,2,2.449V14Z"/><path d="M62.514,5.142a1,1,0,0,0-1-.014L54.482,9.08a1,1,0,0,0-.024,1.729L57.1,12.392,49.651,24.649,43.5,21.132a1,1,0,0,0-1.321.3l-11,16.077,1.65,1.129,10.48-15.316,6.2,3.542a1,1,0,0,0,1.35-.348l7.964-13.1,2.5,1.5a1,1,0,0,0,1.514-.837L63,6.021A1,1,0,0,0,62.514,5.142Zm-1.643,7.175L56.964,9.979l4-2.25Z"/><path d="M50,59a1,1,0,0,0,1-1V42a1,1,0,0,0-1-1H45a1,1,0,0,0-1,1V58a1,1,0,0,0,1,1ZM46,43h3V57H46Z"/><path d="M40,59a1,1,0,0,0,1-1V51a1,1,0,0,0-1-1H35a1,1,0,0,0-1,1v7a1,1,0,0,0,1,1Zm-4-7h3v5H36Z"/><path d="M60,59a1,1,0,0,0,1-1V31a1,1,0,0,0-1-1H55a1,1,0,0,0-1,1V58a1,1,0,0,0,1,1ZM56,32h3V57H56Z"/><rect x="32" y="61" width="31" height="2"/></svg>