<?xml version="1.0" encoding="UTF-8" standalone="no"?>
<svg
   xmlns:dc="http://purl.org/dc/elements/1.1/"
   xmlns:cc="http://creativecommons.org/ns#"
   xmlns:rdf="http://www.w3.org/1999/02/22-rdf-syntax-ns#"
   xmlns:svg="http://www.w3.org/2000/svg"
   xmlns="http://www.w3.org/2000/svg"
   xmlns:sodipodi="http://sodipodi.sourceforge.net/DTD/sodipodi-0.dtd"
   xmlns:inkscape="http://www.inkscape.org/namespaces/inkscape"
   width="64"
   height="64"
   viewBox="0 0 16.933333 16.933334"
   version="1.1"
   id="svg8"
   inkscape:version="0.92.3 (2405546, 2018-03-11)"
   sodipodi:docname="01-Best employee.svg">
  <defs
     id="defs2" />
  <sodipodi:namedview
     id="base"
     pagecolor="#ffffff"
     bordercolor="#959595"
     borderopacity="1"
     inkscape:pageopacity="0"
     inkscape:pageshadow="2"
     inkscape:zoom="8"
     inkscape:cx="13.066679"
     inkscape:cy="21.19636"
     inkscape:document-units="px"
     inkscape:current-layer="layer1"
     inkscape:document-rotation="0"
     showgrid="false"
     units="px"
     inkscape:window-width="1920"
     inkscape:window-height="1040"
     inkscape:window-x="0"
     inkscape:window-y="0"
     inkscape:window-maximized="1"
     inkscape:pagecheckerboard="0" />
  <metadata
     id="metadata5">
    <rdf:RDF>
      <cc:Work
         rdf:about="">
        <dc:format>image/svg+xml</dc:format>
        <dc:type
           rdf:resource="http://purl.org/dc/dcmitype/StillImage" />
      </cc:Work>
    </rdf:RDF>
  </metadata>
  <g
     inkscape:label="01-Best employee"
     inkscape:groupmode="layer"
     id="layer1">
    <path
       style="color:#000000;font-style:normal;font-variant:normal;font-weight:normal;font-stretch:normal;font-size:medium;line-height:normal;font-family:sans-serif;font-variant-ligatures:normal;font-variant-position:normal;font-variant-caps:normal;font-variant-numeric:normal;font-variant-alternates:normal;font-feature-settings:normal;text-indent:0;text-align:start;text-decoration:none;text-decoration-line:none;text-decoration-style:solid;text-decoration-color:#000000;letter-spacing:normal;word-spacing:normal;text-transform:none;writing-mode:lr-tb;direction:ltr;text-orientation:mixed;dominant-baseline:auto;baseline-shift:baseline;text-anchor:start;white-space:normal;shape-padding:0;clip-rule:nonzero;display:inline;overflow:visible;visibility:visible;opacity:1;isolation:auto;mix-blend-mode:normal;color-interpolation:sRGB;color-interpolation-filters:linearRGB;solid-color:#000000;solid-opacity:1;vector-effect:none;fill:#000000;fill-opacity:1;fill-rule:nonzero;stroke:none;stroke-width:1.99993789;stroke-linecap:round;stroke-linejoin:round;stroke-miterlimit:4;stroke-dasharray:none;stroke-dashoffset:0;stroke-opacity:1;paint-order:stroke fill markers;color-rendering:auto;image-rendering:auto;shape-rendering:auto;text-rendering:auto;enable-background:accumulate"
       d="m 32,2 c -0.500031,0 -1,0.3333291 -1,1 v 2 c 0,1.3336063 2,1.3336063 2,0 V 3 C 33,2.3332158 32.499956,2 32,2 Z m 0,6 c -5.422335,-7.79e-5 -9.880583,3.874481 -10.818359,8.998047 H 5.0039062 C 3.3591315,16.998047 2,18.329209 2,19.996094 c 0,1.310287 0.8515784,2.441493 2.0019531,2.832031 L 4,30.996094 c 0,2.635011 0.910323,4.993048 2.3925781,6.871094 C 7.2871545,39.391698 8.1752561,41.129361 8.8632812,43 7.2804529,43.078236 6,44.380459 6,45.996094 6,46.535017 6.1387061,47.032555 6.3867188,47.46875 5.5479682,47.997657 5,48.943609 5,49.996094 5,50.770935 5.2842388,51.468409 5.7636719,52 c -0.4793575,0.529285 -0.765625,1.223357 -0.765625,1.998047 0,1.666885 1.3601019,3.005859 3.0058593,3.005859 C 8.0043977,57.026583 8,57.048013 8,57.070312 v 1.962891 C 8,60.695893 9.362305,62 10.998047,62 h 8.003906 c 1.667036,0 2.996094,-1.331471 2.996094,-2.966797 V 57 h 8.587891 l 0.705078,0.705078 c 0.390991,0.392958 1.026977,0.392958 1.417968,0 L 33.414062,57 H 38 v 1 c 0,2.233852 1.805204,4 4.003906,4 H 57.996094 C 60.194796,62 62,60.233852 62,58 V 49.001953 C 61.999509,46.803247 60.233876,45 57.996094,45 H 56 v -0.996094 c 0,-1.644703 -1.320201,-3.005859 -2.998047,-3.005859 h -4.712891 l -0.02734,-0.162109 C 48.031168,39.386677 47.306982,38.353183 46.267578,37.537109 45.29582,36.774136 44.163959,36.265205 43.015625,35.710938 L 37.423828,33.09375 c -0.133795,-0.06312 -0.27969,-0.09609 -0.427734,-0.0957 V 31.501953 C 38.34172,30.608851 39.386459,29.417172 40.085938,28 h 0.910156 c 2.216848,0 4.001953,-1.785109 4.001953,-4.001953 0,-1.479458 -0.812473,-2.770594 -2,-3.462891 V 19.001953 C 42.998047,12.925229 38.114896,8.0000779 32,8 Z M 16.400391,8.4277344 c -0.75137,0.044126 -1.371288,1.015431 -0.664063,1.7226566 l 1.416016,1.414062 c 0.942954,0.942993 2.357054,-0.47107 1.414062,-1.414062 L 17.152344,8.7363281 C 16.916501,8.5004856 16.65086,8.4130887 16.400391,8.4277344 Z m 31.199218,0 c -0.250582,-0.015042 -0.516224,0.073129 -0.751953,0.3085937 l -1.414062,1.4140629 c -0.942955,0.942992 0.47107,2.357054 1.414062,1.414062 l 1.416016,-1.414062 C 48.970897,9.4431654 48.350979,8.4717848 47.599609,8.4277344 Z M 5.0039062,19 H 24.996094 C 25.567483,19 26,19.452334 26,19.996094 26,20.539855 25.567483,21 24.996094,21 H 5.0039062 C 4.4325551,21 4,20.539855 4,19.996094 4,19.452334 4.4325551,19 5.0039062,19 Z M 28.53125,19.326172 C 29.4873,19.708207 30.668435,20 32,20 c 1.355868,0 2.616515,-0.323164 3.466797,-0.673828 0.734173,1.323628 2.035766,2.250815 3.53125,2.572266 v 2.166015 C 38.998047,27.919647 35.866722,31 32,31 29.42807,31 27.218142,29.64168 26,27.625 l -0.002,-4.792969 c 1.129172,-0.403578 1.957077,-1.442052 1.998047,-2.726562 0.235086,-0.270236 0.419409,-0.550409 0.535156,-0.779297 z m 12.466797,2.671875 c 1.116435,0 2.001953,0.907036 2.001953,2 0,1.092964 -0.885518,2 -2.001953,2 h -0.208985 c 0.137199,-0.622262 0.208985,-1.268548 0.208985,-1.933594 z M 6.0019531,23.001953 H 23.998047 L 24,30.996094 c 0,5.0033 -4.027956,9.005859 -9,9.005859 -4.972045,0 -9,-4.002559 -9,-9.005859 z M 50,24 c -1.333568,0 -1.333568,2 0,2 h 2 c 1.333568,0 1.333568,-2 0,-2 z m -34.962891,1 c -0.03401,-0.0011 -0.06912,-7.65e-4 -0.103515,0.002 -0.364725,0.02268 -0.687592,0.244556 -0.841797,0.576172 l -1.320313,2.833984 -2.9160152,0.429688 C 9.0433995,28.955939 8.7060937,29.944818 9.2792969,30.53125 l 2.1406251,2.207031 -0.523438,3.09375 c -0.141732,0.829002 0.740889,1.452077 1.47461,1.041016 L 15,35.410156 l 2.576172,1.439453 c 0.730659,0.410117 1.611529,-0.206356 1.476562,-1.033203 l -0.523437,-3.144531 2.177734,-2.162109 c 0.585146,-0.581593 0.253992,-1.581638 -0.5625,-1.699219 L 17.199219,28.369141 15.908203,25.578125 C 15.749841,25.236834 15.413077,25.013548 15.037109,25 Z M 26,30.730469 c 0.312189,0.277417 0.651717,0.537619 1,0.769531 l -0.0039,1.496094 c -0.147402,0.0025 -0.292539,0.03416 -0.421875,0.09766 l -0.857422,0.402344 C 25.899348,32.694608 26,31.861719 26,30.996094 Z m 8.998047,1.761719 v 2.091796 l -2.414063,2.414063 H 31.410156 L 29,34.583984 v -2.08789 C 29.93978,32.825291 30.94434,33 32,33 c 1.054602,0 2.058154,-0.177254 2.998047,-0.507812 z m -8.208985,2.71289 2.796876,2.796875 L 28,39.589844 24.671875,36.255859 c 0.01512,-0.02646 0.02627,-0.05362 0.04102,-0.08008 z m 10.423829,0 2.158203,1.009766 -3.369141,3.375 -1.587891,-1.587891 z m 4.08789,1.91211 0.857422,0.402343 c 1.164851,0.560275 2.182491,1.04306 2.878906,1.589844 0.684057,0.537071 1.086723,1.113407 1.238282,1.980469 C 44.956071,41.408836 44,42.60155 44,44.003906 V 45 H 42.003906 C 39.766124,45 38.000491,46.803251 38,49.001953 V 55 h -2.585938 l 0.292969,-0.292969 c 0.228284,-0.228283 0.332211,-0.552668 0.279297,-0.871093 l -1.914062,-11.482422 0.941406,-0.925782 0.279297,0.279297 c 0.390992,0.392996 1.026974,0.392996 1.417969,0 z m -17.753906,0.847656 3.744141,3.742187 c 0.390992,0.392996 1.027014,0.392996 1.417968,0 l 0.300782,-0.300781 0.923828,0.925781 -1.919922,11.503907 c -0.05253,0.318614 0.05259,0.643188 0.28125,0.871093 L 28.587891,55 H 21.251953 C 20.920489,54.632252 20.479093,54.334469 20,54.166016 v -4.167969 h 0.501953 c 1.921739,0 3.498047,-1.554828 3.498047,-3.5 0,-0.171969 -0.01248,-0.336788 -0.03516,-0.501953 h 2.033203 c 1.333682,0 1.329752,-2 0,-2 H 23 c -0.0189,0 -0.03024,0.004 -0.04687,0.0078 -0.490772,-0.482343 -1.135276,-0.822264 -1.837891,-0.949218 0.670111,-1.831032 1.556716,-3.583287 2.431641,-5.089844 z m 7.871094,1.033203 h 1.166015 l 1.015625,1.015625 -1.591797,1.560547 -1.585937,-1.580078 z M 19.826172,40.890625 C 19.528723,41.584826 19.262681,42.271194 19.017578,43 H 18.498047 C 16.576308,43 15,44.552913 15,46.498047 c 0,1.772447 1.313689,3.205968 3,3.449219 V 54 l -5,-0.002 C 13,53.222715 12.713922,52.529285 12.234375,52 12.713959,51.468409 13,50.770935 13,49.996094 13,49.221404 12.719554,48.527332 12.240234,47.998047 12.719176,47.466608 13,46.770406 13,45.996094 c 0,-1.298041 -0.815577,-2.39417 -1.957031,-2.814453 -0.259276,-0.793172 -0.543257,-1.536042 -0.865235,-2.28711 1.421103,0.69823 3.078392,1.109375 4.822266,1.109375 1.743874,0 3.406393,-0.415713 4.826172,-1.113281 z M 47,43 h 6.001953 C 53.5456,43 54,43.432593 54,44.003906 V 45 H 46 V 44.003906 C 46,43.456026 46.428687,43 47,43 Z M 9.0039062,45 H 9.9960938 C 10.56752,45 11,45.452333 11,45.996094 11,46.539854 10.56752,47 9.9960938,47 H 9.0039062 C 8.4325173,47 8,46.539854 8,45.996094 8,45.452333 8.4325173,45 9.0039062,45 Z m 9.4941408,0 h 2.003906 C 21.35023,45 22,45.677096 22,46.498047 c 0,0.820989 -0.64977,1.498047 -1.498047,1.498047 H 18.498047 C 17.649769,47.996094 17,47.319036 17,46.498047 17,45.677096 17.649769,45 18.498047,45 Z m 23.505859,2 H 57.996094 C 59.12141,47 60,47.903963 60,49.001953 v 0.996094 c 0,1.678601 -1.352869,3.002848 -2.996094,3.003906 v -1.003906 c 0,-0.53726 -0.441613,-0.996094 -1.005859,-0.996094 h -4 c -0.549581,0.0019 -0.994166,0.446551 -0.996094,0.996094 v 1.003906 H 49 v -1.003906 c 0,-0.53726 -0.439661,-0.996094 -1.003906,-0.996094 h -4 C 43.446513,51.003952 43.001928,51.448504 43,51.998047 v 1.003906 c -1.64417,0 -2.999048,-1.324624 -3,-3.003906 V 49.001953 C 39.999974,47.903963 40.87859,47 42.003906,47 Z M 8.0019531,49 C 8.6679815,48.999868 10,49.001953 10,49.001953 c 0.500825,-0.01134 1,0.398903 1,0.994141 C 11,50.53524 10.567482,51 9.9960938,51 H 8.0019531 C 7.4305642,51 6.9980469,50.539851 6.9980469,49.996094 6.9980469,49.452333 7.4305642,49.000015 8.0019531,49 Z m 0,4.001953 H 9.9960938 C 10.56752,53.001953 11,53.454286 11,53.998047 c 0,0.54376 -0.43248,1.003906 -1.0039062,1.003906 H 8.0019531 c -0.5713889,0 -1.0039062,-0.460146 -1.0039062,-1.003906 0,-0.543761 0.4325173,-0.996094 1.0039062,-0.996094 z M 60,54.001953 V 58 c 0,1.101846 -0.87859,2 -2.003906,2 H 42.003906 C 40.87859,60 40,59.101846 40,58 v -3.996094 c 0.835389,0.632542 1.86565,0.998047 3,0.998047 v 0.996094 c -0.0021,0.552453 0.44364,1.003894 0.996094,1.005859 h 4 C 48.55142,57.006106 49.002079,56.553373 49,55.998047 v -0.996094 h 2.001953 v 0.996094 c -0.0021,0.552453 0.44364,1.003894 0.996094,1.005859 h 4 c 0.555364,0.0021 1.007976,-0.450533 1.005859,-1.005859 v -0.996094 c 1.132573,-4.53e-4 2.161612,-0.368857 2.996094,-1 z"
       transform="scale(0.26458334)"
       id="path876"
       inkscape:connector-curvature="0"
       sodipodi:nodetypes="cccccccccccccccccccccccccccccccccccccccccccccccccccccccccccccccccccccccccccccccccccccccccccccccccccccccccccccccccccccccccccccccccccccccccccccccccccccccccccccccccccccccccccccccccccccccccccccccccccccccccccccccccccccccccccccccccccccccccccccccccccccccccccccccccccccccccccccccccc" />
  </g>
</svg>
