<?xml version="1.0" encoding="UTF-8" standalone="no"?> <svg width="512" height="512" viewBox="0 0 512 512" fill="none" xmlns="http://www.w3.org/2000/svg">
<path d="M80 320H184V344H200V312C200 310.949 199.793 309.909 199.391 308.939C198.989 307.968 198.4 307.086 197.657 306.343C196.914 305.6 196.032 305.011 195.062 304.609C194.091 304.207 193.051 304 192 304H144V240H200V224H136C134.949 224 133.909 224.207 132.938 224.609C131.968 225.011 131.086 225.6 130.343 226.343C129.6 227.086 129.011 227.968 128.609 228.938C128.207 229.909 128 230.949 128 232V304H72C70.9494 304 69.9091 304.207 68.9385 304.609C67.9679 305.011 67.086 305.6 66.3431 306.343C65.6002 307.086 65.0109 307.968 64.6089 308.939C64.2069 309.909 64 310.949 64 312V344H80V320Z" fill="black"/>
<path d="M490.264 399.27L487.92 382.868C487.722 381.477 487.16 380.162 486.291 379.056C485.422 377.951 484.277 377.094 482.972 376.572L442.972 360.572C441.065 359.809 438.937 359.809 437.03 360.572L397.03 376.572C395.724 377.094 394.58 377.951 393.711 379.056C392.842 380.162 392.28 381.477 392.081 382.868L389.738 399.27C387.839 412.793 389.098 426.573 393.416 439.528C397.735 452.483 404.995 464.262 414.628 473.941L434.344 493.656C435.087 494.399 435.969 494.989 436.939 495.391C437.91 495.793 438.95 496 440.001 496C441.051 496 442.092 495.793 443.062 495.391C444.033 494.989 444.915 494.399 445.658 493.656L465.373 473.941C475.007 464.262 482.267 452.483 486.585 439.528C490.904 426.573 492.163 412.793 490.264 399.27V399.27ZM454.06 462.627L440.001 476.686L425.942 462.627C418.06 454.708 412.12 445.071 408.587 434.471C405.054 423.871 404.023 412.597 405.577 401.533L407.266 389.71L440.001 376.616L472.735 389.71L474.425 401.533C475.978 412.597 474.948 423.871 471.415 434.471C467.882 445.071 461.941 454.708 454.06 462.627V462.627Z" fill="black"/>
<path d="M367.92 382.868C367.722 381.477 367.16 380.162 366.291 379.056C365.422 377.951 364.277 377.094 362.972 376.572L322.972 360.572C321.065 359.809 318.937 359.809 317.03 360.572L277.03 376.572C275.724 377.094 274.58 377.951 273.711 379.056C272.842 380.162 272.28 381.477 272.081 382.868L269.738 399.27C267.839 412.793 269.098 426.573 273.416 439.528C277.735 452.483 284.995 464.262 294.628 473.941L314.344 493.656C315.087 494.399 315.969 494.989 316.939 495.391C317.91 495.793 318.95 496 320.001 496C321.051 496 322.092 495.793 323.062 495.391C324.033 494.989 324.915 494.399 325.658 493.656L345.373 473.941C355.007 464.262 362.267 452.483 366.585 439.528C370.904 426.573 372.163 412.793 370.264 399.27L367.92 382.868ZM334.06 462.627L320.001 476.686L305.942 462.627C298.06 454.708 292.12 445.071 288.587 434.471C285.054 423.871 284.023 412.597 285.577 401.533L287.266 389.71L320.001 376.616L352.735 389.71L354.425 401.533C355.978 412.597 354.948 423.871 351.415 434.471C347.882 445.071 341.941 454.708 334.06 462.627V462.627Z" fill="black"/>
<path d="M239.92 382.868C239.722 381.477 239.16 380.162 238.291 379.056C237.422 377.951 236.277 377.094 234.972 376.572L194.972 360.572C193.065 359.809 190.937 359.809 189.03 360.572L149.03 376.572C147.724 377.094 146.58 377.951 145.711 379.056C144.842 380.162 144.28 381.477 144.081 382.868L141.738 399.27C139.839 412.793 141.098 426.573 145.416 439.528C149.735 452.483 156.995 464.262 166.628 473.941L186.344 493.656C187.087 494.399 187.969 494.989 188.939 495.391C189.91 495.793 190.95 496 192.001 496C193.051 496 194.092 495.793 195.062 495.391C196.033 494.989 196.915 494.399 197.658 493.656L217.373 473.941C227.007 464.262 234.267 452.483 238.585 439.528C242.904 426.573 244.163 412.793 242.264 399.27L239.92 382.868ZM206.06 462.627L192.001 476.686L177.942 462.627C170.06 454.708 164.12 445.071 160.587 434.471C157.054 423.871 156.023 412.597 157.577 401.533L159.266 389.71L192.001 376.616L224.735 389.71L226.425 401.533C227.978 412.597 226.948 423.871 223.415 434.471C219.882 445.071 213.941 454.708 206.06 462.627V462.627Z" fill="black"/>
<path d="M119.92 382.868C119.722 381.477 119.16 380.162 118.291 379.056C117.422 377.951 116.277 377.094 114.972 376.572L74.9721 360.572C73.0647 359.809 70.9371 359.809 69.0297 360.572L29.0297 376.572C27.7243 377.094 26.5795 377.951 25.7108 379.056C24.8421 380.162 24.2801 381.477 24.0814 382.868L21.7382 399.27C19.839 412.793 21.098 426.573 25.4163 439.528C29.7347 452.483 36.9951 464.262 46.6283 473.941L66.3441 493.656C67.087 494.399 67.9688 494.989 68.9394 495.391C69.91 495.793 70.9503 496 72.0009 496C73.0514 496 74.0917 495.793 75.0623 495.391C76.0329 494.989 76.9148 494.399 77.6576 493.656L97.3734 473.941C107.007 464.262 114.267 452.483 118.585 439.528C122.904 426.573 124.163 412.793 122.264 399.27L119.92 382.868ZM86.06 462.627L72.0009 476.686L57.9418 462.627C50.0602 454.708 44.12 445.071 40.5868 434.471C37.0536 423.871 36.0234 412.597 37.577 401.533L39.2665 389.71L72.0009 376.616L104.735 389.71L106.425 401.533C107.978 412.597 106.948 423.871 103.415 434.471C99.8817 445.071 93.9415 454.708 86.06 462.627V462.627Z" fill="black"/>
<path d="M312 224V240H368V304H320C318.949 304 317.909 304.207 316.939 304.609C315.968 305.011 315.086 305.6 314.343 306.343C313.6 307.086 313.011 307.968 312.609 308.939C312.207 309.909 312 310.949 312 312V344H328V320H432V344H448V312C448 310.949 447.793 309.909 447.391 308.939C446.989 307.968 446.4 307.086 445.657 306.343C444.914 305.6 444.032 305.011 443.061 304.609C442.091 304.207 441.051 304 440 304H384V232C384 230.949 383.793 229.909 383.391 228.938C382.989 227.968 382.399 227.086 381.656 226.343C380.914 225.6 380.032 225.011 379.061 224.609C378.09 224.207 377.05 224 376 224H312Z" fill="black"/>
<path d="M179.062 176.718L201.258 196.695C207.667 209.289 214.918 221.437 222.962 233.056L208.573 269.029C208.087 270.243 207.906 271.557 208.046 272.857C208.187 274.157 208.643 275.402 209.376 276.485C210.109 277.568 211.096 278.454 212.251 279.067C213.406 279.68 214.693 280 216 280H296C297.308 280 298.595 279.68 299.75 279.067C300.905 278.454 301.892 277.568 302.625 276.485C303.358 275.402 303.814 274.157 303.954 272.857C304.094 271.557 303.914 270.243 303.428 269.029L289.039 233.056C297.082 221.437 304.333 209.289 310.742 196.695L332.939 176.718C351.078 160.435 364.428 139.509 371.55 116.196C378.672 92.884 379.296 68.0698 373.354 44.4292C371.895 38.5943 369.055 33.1953 365.074 28.6872C361.092 24.1791 356.086 20.6938 350.476 18.525C344.866 16.3562 338.817 15.5674 332.839 16.225C326.86 16.8826 321.127 18.9674 316.123 22.3037L301.578 32H210.422L195.878 22.3037C190.874 18.9674 185.141 16.8826 179.162 16.225C173.184 15.5674 167.135 16.3563 161.525 18.5251C155.915 20.694 150.908 24.1793 146.927 28.6875C142.945 33.1957 140.106 38.5947 138.647 44.4297C132.705 68.0703 133.329 92.8843 140.451 116.196C147.573 139.509 160.923 160.435 179.062 176.718V176.718ZM311.012 44.9406L324.998 35.6162C327.869 33.7022 331.158 32.5063 334.588 32.1291C338.018 31.7519 341.489 32.2045 344.707 33.4488C347.925 34.6932 350.797 36.6928 353.082 39.2792C355.366 41.8656 356.995 44.963 357.831 48.3106C362.836 68.2272 362.553 89.1057 357.009 108.879C351.465 128.652 340.852 146.635 326.223 161.047C332.316 144.363 336.986 127.194 340.182 109.723L343.871 89.4312C344.201 87.616 343.894 85.7426 343.001 84.1282C342.108 82.5137 340.685 81.2575 338.972 80.5723L305.455 67.1656L311.012 44.9406ZM227.817 264L237.417 240H274.584L284.184 264H227.817ZM280 160V176H232V160H280ZM232 120C232 115.253 233.408 110.613 236.045 106.666C238.682 102.72 242.431 99.6434 246.816 97.8269C251.201 96.0104 256.027 95.5351 260.683 96.4612C265.338 97.3872 269.614 99.673 272.971 103.029C276.327 106.386 278.613 110.662 279.539 115.318C280.465 119.973 279.99 124.799 278.173 129.184C276.357 133.57 273.281 137.318 269.334 139.955C265.387 142.592 260.747 144 256 144C249.637 143.993 243.537 141.462 239.038 136.963C234.538 132.463 232.007 126.363 232 120V120ZM293.754 48L289.754 64H222.247L218.246 48H293.754ZM154.169 48.3101C155.006 44.9626 156.635 41.8652 158.919 39.2789C161.204 36.6925 164.076 34.693 167.294 33.4487C170.513 32.2045 173.983 31.7519 177.413 32.1291C180.843 32.5063 184.132 33.7023 187.003 35.6162L200.989 44.9405L206.546 67.1655L173.029 80.5723C171.316 81.2575 169.893 82.5137 169 84.1281C168.107 85.7425 167.799 87.616 168.129 89.4311L171.819 109.723C175.014 127.194 179.684 144.363 185.778 161.046C171.148 146.635 160.536 128.652 154.992 108.879C149.448 89.1053 149.164 68.2268 154.169 48.3101H154.169Z" fill="black"/>
<path d="M256 128C260.418 128 264 124.418 264 120C264 115.582 260.418 112 256 112C251.582 112 248 115.582 248 120C248 124.418 251.582 128 256 128Z" fill="black"/>
</svg>
