<?xml version="1.0" encoding="UTF-8" standalone="no"?> <svg width="512" height="512" viewBox="0 0 512 512" fill="none" xmlns="http://www.w3.org/2000/svg">
<path d="M116.382 292.23L88 330.941L139.614 368.783L167.995 330.072L116.382 292.23Z" fill="#ECEBE6"/>
<path d="M168 330.07L151.59 352.45L138.82 357.03L117.2 296.79L120.83 295.49L168 330.07Z" fill="#CDCCC8"/>
<path d="M168 330.07L151.59 352.45L138.82 357.03L117.2 296.79L120.83 295.49L168 330.07Z" fill="#CDCCC8"/>
<path d="M215.72 316.064L170.768 299.232L148.327 359.169L193.279 376L215.72 316.064Z" fill="#ECEBE6"/>
<path d="M194.8 343.78L150.09 359.83L149.62 360L149.48 359.6L148.83 357.8L170.77 299.23L180.06 302.71L194.8 343.78Z" fill="#CDCCC8"/>
<path d="M168.132 280.575L122.955 296.792L144.579 357.029L189.756 340.811L168.132 280.575Z" fill="#ECEBE6"/>
<path d="M240.772 363.875C237.216 367.142 233.22 369.895 228.9 372.053C213.598 379.704 200.837 391.619 192.155 406.36C183.473 421.102 179.242 438.041 179.972 455.133L180.6 488H403.186L403.809 455.133C404.539 438.041 400.307 421.102 391.626 406.36C382.944 391.619 370.183 379.704 354.881 372.053V372.053C350.964 370.096 347.312 367.65 344.012 364.773L240.772 363.875Z" fill="#2C91FF"/>
<path d="M320 488L332.109 413.743H251.891L264 488H320Z" fill="#DCDBD6"/>
<path d="M379.625 149.743H383.58C387.16 149.743 390.704 150.45 394.01 151.823C397.316 153.197 400.318 155.209 402.844 157.746C405.37 160.282 407.37 163.293 408.73 166.604C410.09 169.916 410.782 173.463 410.767 177.043V177.043C410.74 183.464 408.442 189.668 404.279 194.556C400.116 199.445 394.357 202.702 388.023 203.752L368 205.743L379.625 149.743Z" fill="#E6AF89"/>
<path d="M203.033 149.743H199.077C195.497 149.743 191.953 150.45 188.647 151.823C185.341 153.197 182.339 155.209 179.813 157.746C177.287 160.282 175.287 163.293 173.927 166.604C172.568 169.916 171.876 173.463 171.891 177.043V177.043C171.918 183.464 174.216 189.668 178.378 194.556C182.541 199.445 188.3 202.702 194.634 203.752L211.891 205.744L203.033 149.743Z" fill="#E6AF89"/>
<path d="M344.012 364.773C338.437 359.912 333.968 353.914 330.906 347.182C327.844 340.449 326.26 333.139 326.26 325.743V309.743H257.522V325.743C257.522 332.912 256.033 340.003 253.15 346.567C250.267 353.131 246.052 359.025 240.772 363.875L291.891 437.743L344.012 364.773Z" fill="#FDC9A6"/>
<path d="M326.27 326.7L316.43 335.05C315.706 335.663 314.788 335.999 313.84 336H268.79C267.827 335.998 266.897 335.65 266.17 335.02L257.49 327.5C257.51 326.91 257.52 326.33 257.52 325.74V309.74H326.26V325.74C326.26 326.06 326.26 326.38 326.27 326.7Z" fill="#FDC9A6"/>
<path d="M326.27 326.7L316.43 335.05C315.706 335.663 314.788 335.999 313.84 336H268.79C267.827 335.998 266.897 335.65 266.17 335.02L257.49 327.5C257.51 326.91 257.52 326.33 257.52 325.74V309.74H326.26V325.74C326.26 326.06 326.26 326.38 326.27 326.7Z" fill="#E6AF89"/>
<path d="M275.516 65.716C229.226 73.431 195.298 94.816 195.298 141.743L211.683 277.6C211.817 278.558 212.294 279.435 213.025 280.069L266.171 326.109C266.898 326.739 267.828 327.086 268.79 327.086H313.841C314.789 327.086 315.706 326.749 316.429 326.136L370.711 280.067C371.47 279.423 371.962 278.519 372.09 277.532L387.3 141.743C387.3 94.814 353.373 73.431 307.083 65.716L291.3 63.085L275.516 65.716Z" fill="#FDC9A6"/>
<path d="M251.891 341.743C257.164 373.382 269.091 403.543 286.883 430.232L291.891 437.743L251.891 413.743L235.891 421.743L232.691 399.343C231.2 388.91 232.159 378.274 235.492 368.277C238.824 358.279 244.439 349.195 251.891 341.743V341.743Z" fill="#ECEBE6"/>
<path d="M331.891 341.743C326.618 373.382 314.691 403.543 296.9 430.232L291.893 437.743L331.893 413.743L347.893 421.743L351.093 399.343C352.583 388.91 351.624 378.274 348.292 368.277C344.959 358.279 339.345 349.195 331.893 341.743H331.891Z" fill="#ECEBE6"/>
<path d="M328 85.7429L376 117.743L384 181.743L391.536 169.182C402.309 151.227 408 130.682 408 109.743V109.743C408 99.3571 404.631 89.2515 398.4 80.9429V80.9429C393.929 74.9815 388.131 70.1429 381.466 66.8104C374.801 63.4779 367.452 61.7429 360 61.7429V61.7429L328 85.7429Z" fill="#D78E0C"/>
<path d="M360 61.7429C328.504 93.2398 289.608 116.33 246.876 128.9L176 149.743V122.343C175.999 108.355 179.025 94.5328 184.87 81.8245C190.715 69.1163 199.24 57.8231 209.86 48.7199V48.7199C224.301 36.3423 242.063 28.485 260.935 26.1259L272.195 24.7179C287.809 22.7661 303.664 24.8078 318.274 30.6519V30.6519C329.97 35.3295 340.593 42.3345 349.5 51.2419L360 61.7429Z" fill="#EE9D0D"/>
<path d="M191.718 424H127.718V488H191.718V424Z" fill="#2C91FF"/>
<path d="M128 176L123.442 182.837C118.565 190.152 111.864 196.068 104 200C111.864 203.932 118.565 209.848 123.442 217.163L128 224L132.558 217.163C137.435 209.848 144.136 203.932 152 200V200C144.136 196.068 137.435 190.152 132.558 182.837L128 176Z" fill="#F9E38E"/>
<path d="M80 232L75.442 238.837C70.5651 246.152 63.8636 252.068 56 256C63.8636 259.932 70.5651 265.848 75.442 273.163L80 280L84.558 273.163C89.4349 265.848 96.1364 259.932 104 256C96.1364 252.068 89.4349 246.152 84.558 238.837L80 232Z" fill="#F9E38E"/>
<path d="M200 424H192V488H200V424Z" fill="#007AF6"/>
<path d="M135.718 424V400L111.718 384V348.329L127.718 360L143.718 336L167.718 328L199.718 352L191.718 383.427L175.718 400V424H135.718Z" fill="#FDC9A6"/>
<path d="M358.458 364.9C357.197 364.27 355.974 363.553 354.775 362.8C350.985 352.778 345.113 343.674 337.547 336.087C336.851 335.397 336.034 334.842 335.136 334.449C334.559 331.602 334.259 321.497 334.259 321.497L375.886 286.168C378.174 284.226 379.652 281.497 380.029 278.52L388.329 211.761L388.814 211.713C388.987 211.695 389.16 211.673 389.331 211.645C395.708 210.59 401.671 207.798 406.566 203.576C411.461 199.354 415.098 193.866 417.078 187.713C419.059 181.56 419.306 174.98 417.793 168.696C416.28 162.412 413.064 156.666 408.5 152.089C413.457 138.521 415.995 124.188 416 109.743C416.001 95.4838 410.561 81.7616 400.791 71.3757C391.021 60.9897 377.657 54.7227 363.424 53.853L355.156 45.585C344.279 34.708 331.061 26.4589 316.511 21.4669C301.962 16.4749 286.464 14.8718 271.2 16.78L259.941 18.188C234.556 21.3612 211.204 33.6964 194.273 52.8753C177.343 72.0542 168 96.7563 168 122.339V149.739C168.002 150.916 168.264 152.078 168.767 153.143C169.27 154.207 170.002 155.147 170.911 155.895C167.29 160.727 164.975 166.411 164.189 172.398C163.404 178.386 164.175 184.474 166.428 190.077C168.681 195.68 172.34 200.607 177.051 204.384C181.763 208.161 187.369 210.66 193.327 211.64C193.457 211.661 193.586 211.679 193.717 211.694L195.705 211.924L203.74 278.553C203.746 278.603 203.753 278.653 203.76 278.704C204.163 281.578 205.593 284.21 207.787 286.11L249.521 322.265C249.521 322.265 249.221 331.593 248.639 334.448C247.744 334.841 246.929 335.394 246.234 336.082C238.667 343.67 232.795 352.776 229.006 362.8C227.806 363.551 226.585 364.268 225.322 364.9C207.703 373.771 193.195 387.787 183.722 405.09V395.055L198.562 382.008C199.551 381.139 200.31 380.04 200.772 378.808L208.598 357.908L223.214 318.873C223.583 317.889 223.754 316.842 223.718 315.792C223.682 314.741 223.44 313.708 223.004 312.752C222.569 311.795 221.95 310.934 221.182 310.217C220.413 309.5 219.511 308.941 218.527 308.573L181.896 294.858L175.649 277.821C174.922 275.838 173.44 274.223 171.526 273.328C169.613 272.434 167.423 272.332 165.435 273.046L124.02 287.91L121.111 285.777C119.4 284.523 117.261 284 115.164 284.323C113.067 284.646 111.184 285.789 109.93 287.5L81.5481 326.21C80.9269 327.057 80.4787 328.019 80.2291 329.039C79.9795 330.06 79.9333 331.119 80.0932 332.158C80.2531 333.196 80.616 334.193 81.1611 335.091C81.7062 335.989 82.4228 336.771 83.2701 337.392L106.291 354.27L103.749 383.3C103.624 384.73 103.886 386.167 104.507 387.461C105.128 388.755 106.086 389.858 107.28 390.654L127.718 404.279V416C125.596 416 123.562 416.843 122.061 418.343C120.561 419.843 119.718 421.878 119.718 424V488C119.718 490.122 120.561 492.157 122.061 493.657C123.562 495.157 125.596 496 127.718 496H403.186C405.282 496 407.294 495.178 408.79 493.711C410.286 492.243 411.146 490.247 411.186 488.152L411.808 455.378C412.568 436.762 407.938 418.322 398.475 402.272C389.011 386.223 375.116 373.246 358.458 364.9V364.9ZM270.8 480L262.561 429.474L287.775 444.6C289.016 445.348 290.438 445.743 291.888 445.743C293.337 445.743 294.759 445.348 296 444.6L296.006 444.607L321.462 429.333L313.2 480H270.8ZM247.6 360.6C252.147 379.18 258.972 397.127 267.921 414.033L256.003 406.882C254.849 406.189 253.539 405.798 252.195 405.745C250.85 405.693 249.513 405.981 248.309 406.582L242.236 409.619L240.606 398.206C238.784 385.244 241.24 372.041 247.6 360.6V360.6ZM264.879 334.42C266.136 334.856 267.456 335.081 268.786 335.084H313.837C315.564 335.081 317.269 334.706 318.837 333.984C319.503 338.798 320.758 343.512 322.575 348.019C317.172 374.803 306.759 400.326 291.884 423.246C276.993 400.301 266.574 374.747 261.175 347.931C261.325 347.661 261.458 347.382 261.575 347.096C263.14 343.005 264.25 338.755 264.883 334.421L264.879 334.42ZM335.464 406.586C334.26 405.984 332.924 405.696 331.579 405.749C330.234 405.801 328.924 406.192 327.77 406.886L315.852 414.037C324.802 397.13 331.629 379.181 336.177 360.6C342.538 372.042 344.994 385.246 343.171 398.21L341.541 409.623L335.464 406.586ZM402.764 177.008C402.756 180.881 401.572 184.66 399.369 187.845C397.167 191.031 394.049 193.472 390.429 194.848L391.729 184.407L398.4 173.3C399.289 171.818 400.135 170.314 400.959 168.8C402.162 171.369 402.779 174.173 402.767 177.009L402.764 177.008ZM392 85.743C397.177 92.6752 399.982 101.091 400 109.743C399.996 123.505 397.35 137.139 392.206 149.904L392.194 149.921C391.592 150.807 391.174 151.805 390.966 152.856C390.335 154.298 389.683 155.73 388.988 157.146L383.938 116.746C383.796 115.606 383.409 114.51 382.805 113.533C382.201 112.555 381.394 111.719 380.438 111.082L344.038 86.815C350.657 81.475 357.023 75.8296 363.138 69.879C368.796 70.3356 374.294 71.9853 379.268 74.7196C384.243 77.4539 388.582 81.2108 392 85.743ZM184 122.343C184 100.66 191.919 79.7228 206.269 63.4674C220.619 47.2119 240.412 36.7571 261.928 34.068L273.187 32.661C286.033 31.0546 299.075 32.4032 311.32 36.6039C323.565 40.8046 334.689 47.7465 343.843 56.9L348.598 61.655C319.071 89.365 283.458 109.767 244.619 121.223L184 139.051V122.343ZM179.891 177.013C179.886 173.636 180.77 170.316 182.453 167.389C184.136 164.461 186.561 162.027 189.482 160.333L193.704 195.341C189.728 194.192 186.232 191.784 183.741 188.478C181.25 185.172 179.899 181.148 179.891 177.009V177.013ZM204.322 149.755L249.133 136.575C278.264 127.986 305.77 114.629 330.533 97.047L368.521 122.372L375.943 181.75L364.351 274.979L312.378 319.089H270.281L219.431 275.037L204.322 149.755ZM224.256 383.988C223.822 389.487 223.995 395.017 224.771 400.478L227.971 422.878C228.15 424.133 228.625 425.328 229.357 426.364C230.088 427.399 231.056 428.246 232.179 428.834C233.302 429.423 234.549 429.736 235.817 429.747C237.085 429.759 238.337 429.469 239.471 428.902L245.748 425.764L254.59 480H232V448C232 445.878 231.157 443.843 229.657 442.343C228.157 440.843 226.122 440 224 440C221.878 440 219.844 440.843 218.343 442.343C216.843 443.843 216 445.878 216 448V480H199.718V424C199.718 422.574 199.336 421.175 198.613 419.946C197.89 418.717 196.852 417.704 195.606 417.011C201.966 403.596 211.873 392.175 224.256 383.984V383.988ZM205.42 320.75L198.331 339.684L189.154 314.66L205.42 320.75ZM163.358 290.788L175.558 324.062L172.758 321.789C171.714 320.941 170.472 320.37 169.149 320.13C167.825 319.889 166.462 319.986 165.186 320.411L142.632 327.929L133.187 301.618L163.358 290.788ZM117.251 304.573L130.482 341.431L125.688 348.623L119.367 344.017L99.1821 329.217L117.251 304.573ZM140.151 393.344L120.1 379.974L121.386 365.286L123.006 366.466C123.878 367.101 124.869 367.553 125.92 367.796C126.971 368.038 128.06 368.065 129.122 367.876C130.184 367.686 131.196 367.284 132.099 366.693C133.001 366.102 133.775 365.335 134.373 364.438L148.851 342.722L166.082 336.978L191.591 357.684L186.486 371.316L170.435 385.428C169.581 386.179 168.897 387.103 168.428 388.139C167.959 389.176 167.717 390.3 167.717 391.437V416H143.717V400C143.717 398.683 143.392 397.387 142.771 396.225C142.149 395.064 141.251 394.075 140.155 393.344H140.151ZM135.718 432H183.718V480H135.718V432ZM395.818 454.792C395.818 454.854 395.818 454.918 395.812 454.981L395.336 480H371.891V448C371.891 445.878 371.048 443.843 369.548 442.343C368.048 440.843 366.013 440 363.891 440C361.769 440 359.735 440.843 358.234 442.343C356.734 443.843 355.891 445.878 355.891 448V480H329.41L338.239 425.861L344.313 428.898C345.447 429.465 346.7 429.755 347.967 429.743C349.235 429.732 350.482 429.419 351.605 428.83C352.729 428.242 353.696 427.395 354.427 426.36C355.159 425.324 355.634 424.129 355.813 422.874L359.013 400.474C359.79 395.003 359.962 389.462 359.526 383.953C371.176 391.623 380.642 402.179 387.002 414.593C393.362 427.007 396.399 440.856 395.817 454.792H395.818Z" fill="black"/>
<path d="M329.891 198.409C335.414 198.409 339.891 193.932 339.891 188.409C339.891 182.886 335.414 178.409 329.891 178.409C324.368 178.409 319.891 182.886 319.891 188.409C319.891 193.932 324.368 198.409 329.891 198.409Z" fill="black"/>
<path d="M249.18 198.409C254.703 198.409 259.18 193.932 259.18 188.409C259.18 182.886 254.703 178.409 249.18 178.409C243.657 178.409 239.18 182.886 239.18 188.409C239.18 193.932 243.657 198.409 249.18 198.409Z" fill="black"/>
<path d="M267.891 237.743H288.891C291.013 237.743 293.047 236.9 294.548 235.4C296.048 233.9 296.891 231.865 296.891 229.743C296.891 227.621 296.048 225.586 294.548 224.086C293.047 222.586 291.013 221.743 288.891 221.743H275.949L275.97 218.894L289.524 209.264C290.565 208.525 291.413 207.547 291.999 206.412C292.585 205.278 292.891 204.02 292.891 202.743V184C292.891 181.878 292.048 179.843 290.548 178.343C289.047 176.843 287.013 176 284.891 176C282.769 176 280.734 176.843 279.234 178.343C277.734 179.843 276.891 181.878 276.891 184V198.613L263.367 208.221C262.334 208.955 261.49 209.923 260.904 211.047C260.319 212.171 260.009 213.418 260 214.685L259.891 229.685C259.883 230.74 260.084 231.787 260.483 232.764C260.882 233.742 261.47 234.63 262.213 235.379C262.957 236.128 263.842 236.723 264.816 237.129C265.79 237.534 266.835 237.743 267.891 237.743V237.743Z" fill="black"/>
<path d="M323.891 165.743H352C354.122 165.743 356.157 164.9 357.657 163.4C359.157 161.899 360 159.865 360 157.743C360 155.621 359.157 153.586 357.657 152.086C356.157 150.586 354.122 149.743 352 149.743H323.891C321.769 149.743 319.735 150.586 318.234 152.086C316.734 153.586 315.891 155.621 315.891 157.743C315.891 159.865 316.734 161.899 318.234 163.4C319.735 164.9 321.769 165.743 323.891 165.743Z" fill="black"/>
<path d="M267.891 157.743C267.891 155.621 267.048 153.586 265.548 152.086C264.048 150.586 262.013 149.743 259.891 149.743H232C229.878 149.743 227.843 150.586 226.343 152.086C224.843 153.586 224 155.621 224 157.743C224 159.865 224.843 161.899 226.343 163.4C227.843 164.9 229.878 165.743 232 165.743H259.891C262.013 165.743 264.048 164.9 265.548 163.4C267.048 161.899 267.891 159.865 267.891 157.743Z" fill="black"/>
<path d="M313.547 253.657C315.032 252.154 315.863 250.124 315.856 248.01C315.85 245.897 315.008 243.872 313.513 242.378C312.019 240.883 309.994 240.041 307.881 240.034C305.768 240.028 303.738 240.858 302.234 242.343C300.445 244.142 298.317 245.568 295.972 246.539C293.628 247.51 291.114 248.007 288.577 248H269.891C267.769 248 265.735 248.843 264.234 250.343C262.734 251.843 261.891 253.878 261.891 256C261.891 258.122 262.734 260.157 264.234 261.657C265.735 263.157 267.769 264 269.891 264H288.577C293.216 264.013 297.812 263.105 302.098 261.33C306.384 259.554 310.276 256.946 313.547 253.657Z" fill="black"/>
<path d="M296 272H280C277.878 272 275.843 272.843 274.343 274.343C272.843 275.843 272 277.878 272 280C272 282.122 272.843 284.157 274.343 285.657C275.843 287.157 277.878 288 280 288H296C298.122 288 300.157 287.157 301.657 285.657C303.157 284.157 304 282.122 304 280C304 277.878 303.157 275.843 301.657 274.343C300.157 272.843 298.122 272 296 272Z" fill="black"/>
<path d="M100.422 207.155C107.039 210.467 112.679 215.445 116.786 221.6L121.344 228.437C122.075 229.533 123.064 230.431 124.225 231.052C125.387 231.674 126.683 231.999 128 231.999C129.317 231.999 130.613 231.674 131.774 231.052C132.936 230.431 133.925 229.533 134.656 228.437L139.215 221.6C143.321 215.445 148.961 210.466 155.578 207.154C156.907 206.49 158.024 205.468 158.805 204.204C159.586 202.941 159.999 201.485 159.999 199.999C159.999 198.513 159.586 197.057 158.805 195.794C158.024 194.53 156.907 193.509 155.578 192.844C148.961 189.533 143.321 184.554 139.214 178.4L134.656 171.563C133.925 170.467 132.936 169.569 131.774 168.948C130.613 168.326 129.317 168.001 128 168.001C126.683 168.001 125.387 168.326 124.225 168.948C123.064 169.569 122.075 170.467 121.344 171.563L116.785 178.4C112.678 184.555 107.039 189.534 100.422 192.846C99.0933 193.511 97.976 194.532 97.195 195.796C96.4141 197.059 96.0005 198.515 96.0005 200.001C96.0005 201.487 96.4141 202.943 97.195 204.206C97.976 205.47 99.0933 206.492 100.422 207.156V207.155ZM128 190.22C130.748 193.833 133.907 197.115 137.412 200C133.906 202.884 130.748 206.166 128 209.78C125.252 206.167 122.093 202.885 118.588 200C122.094 197.116 125.252 193.834 128 190.22V190.22Z" fill="black"/>
<path d="M86.6559 284.438L91.2149 277.601C95.3214 271.446 100.961 266.467 107.578 263.155C108.907 262.491 110.024 261.469 110.805 260.205C111.586 258.942 111.999 257.486 111.999 256C111.999 254.514 111.586 253.058 110.805 251.795C110.024 250.531 108.907 249.51 107.578 248.845C100.961 245.533 95.3212 240.555 91.2139 234.4L86.6559 227.563C85.9254 226.467 84.9356 225.569 83.7745 224.948C82.6134 224.326 81.3168 224.001 79.9999 224.001C78.683 224.001 77.3865 224.326 76.2254 224.948C75.0643 225.569 74.0745 226.467 73.3439 227.563L68.7849 234.4C64.6784 240.555 59.0388 245.534 52.4219 248.846C51.0933 249.511 49.976 250.532 49.195 251.796C48.4141 253.059 48.0005 254.515 48.0005 256.001C48.0005 257.487 48.4141 258.943 49.195 260.206C49.976 261.47 51.0933 262.492 52.4219 263.156C59.0387 266.467 64.6786 271.446 68.7859 277.6L73.3439 284.437C74.0745 285.533 75.0643 286.431 76.2254 287.052C77.3865 287.674 78.683 287.999 79.9999 287.999C81.3168 287.999 82.6134 287.674 83.7745 287.052C84.9356 286.431 85.9254 285.533 86.6559 284.437V284.438ZM79.9999 265.78C77.2517 262.167 74.0932 258.885 70.5879 256C74.0937 253.116 77.2522 249.834 79.9999 246.22C82.7482 249.833 85.9067 253.115 89.4119 256C85.9062 258.884 82.7476 262.166 79.9999 265.78V265.78Z" fill="black"/>
</svg>
