<?xml version="1.0" encoding="UTF-8" standalone="no"?> <svg width="512" height="512" viewBox="0 0 512 512" fill="none" xmlns="http://www.w3.org/2000/svg">
<path d="M488 480H408V448V352C408 347.6 404.4 344 400 344H352C347.6 344 344 347.6 344 352V448V480H312V384V248C312 243.6 308.4 240 304 240H256C251.6 240 248 243.6 248 248V384V480H216V360V272C216 267.6 212.4 264 208 264H160C155.6 264 152 267.6 152 272V360V480H120V384V200C120 195.6 116.4 192 112 192H64C59.6 192 56 195.6 56 200V384V480H32V24C32 19.6 28.4 16 24 16C19.6 16 16 19.6 16 24V488C16 492.4 19.6 496 24 496H64H112H160H208H256H304H352H400H488C492.4 496 496 492.4 496 488C496 483.6 492.4 480 488 480ZM392 360V440H360V360H392ZM296 256V376H264V256H296ZM200 280V352H168V280H200ZM104 208V376H72V208H104ZM72 480V392H104V480H72ZM168 480V368H200V480H168ZM264 480V392H296V480H264ZM360 480V456H392V480H360Z" fill="black"/>
<path d="M88 160C95.5 160 102.5 157.4 108 153L154.4 187.8C152.8 191.6 152 195.7 152 200C152 217.6 166.4 232 184 232C201.6 232 215.9 217.8 216 200.2L251.9 191.2C257.3 201.2 267.9 207.9 280 207.9C285.5 207.9 290.6 206.5 295.1 204.1L349.1 262.6C345.9 267.6 344 273.5 344 279.9C344 297.5 358.4 311.9 376 311.9C393.6 311.9 408 297.5 408 279.9C408 262.3 393.6 247.9 376 247.9C370.5 247.9 365.4 249.3 360.9 251.7L306.9 193.2C310.1 188.2 312 182.3 312 175.9C312 158.3 297.6 143.9 280 143.9C262.4 143.9 248.1 158.1 248 175.7L212.1 184.7C206.7 174.7 196.1 168 184 168C176.5 168 169.5 170.6 164 175L117.6 140.2C119.2 136.4 120 132.3 120 128C120 110.4 105.6 96 88 96C70.4 96 56 110.4 56 128C56 145.6 70.4 160 88 160ZM392 280C392 288.8 384.8 296 376 296C367.2 296 360 288.8 360 280C360 271.2 367.2 264 376 264C384.8 264 392 271.2 392 280ZM280 160C288.8 160 296 167.2 296 176C296 184.8 288.8 192 280 192C271.2 192 264 184.8 264 176C264 167.2 271.2 160 280 160ZM200 200C200 208.8 192.8 216 184 216C175.2 216 168 208.8 168 200C168 191.2 175.2 184 184 184C192.8 184 200 191.2 200 200ZM88 112C96.8 112 104 119.2 104 128C104 136.8 96.8 144 88 144C79.2 144 72 136.8 72 128C72 119.2 79.2 112 88 112Z" fill="black"/>
<path d="M468.7 272H442.8C438.4 272 434.8 275.6 434.8 280C434.8 284.4 438.4 288 442.8 288H488C488.3 288 488.5 288 488.8 288C488.9 288 489 288 489.1 287.9C489.2 287.9 489.4 287.9 489.5 287.8C489.6 287.8 489.8 287.7 489.9 287.7C490 287.7 490.1 287.6 490.3 287.6C490.4 287.6 490.5 287.5 490.7 287.5C490.8 287.5 490.9 287.4 491.1 287.4C491.2 287.4 491.3 287.3 491.4 287.2C491.5 287.1 491.7 287.1 491.8 287C491.9 286.9 492 286.9 492.1 286.8C492.2 286.7 492.4 286.7 492.5 286.6C492.6 286.5 492.7 286.5 492.8 286.4C492.9 286.3 493 286.2 493.1 286.2C493.2 286.1 493.4 286 493.5 285.8C493.6 285.7 493.6 285.7 493.7 285.6C493.8 285.5 493.8 285.5 493.9 285.4C494 285.3 494.2 285.1 494.3 285C494.4 284.9 494.5 284.8 494.6 284.7C494.7 284.6 494.7 284.5 494.8 284.4C494.9 284.3 495 284.1 495 284C495.1 283.9 495.1 283.8 495.2 283.7C495.3 283.6 495.3 283.4 495.4 283.3C495.4 283.2 495.5 283.1 495.5 283C495.6 282.9 495.6 282.7 495.6 282.6C495.6 282.5 495.7 282.4 495.7 282.2C495.7 282.1 495.8 281.9 495.8 281.8C495.8 281.7 495.9 281.6 495.9 281.4C495.9 281.2 495.9 281.1 496 280.9C496 280.8 496 280.7 496 280.6C496 280.3 496 280.1 496 279.8V234.6C496 230.2 492.4 226.6 488 226.6C483.6 226.6 480 230.2 480 234.6V260.5L237.7 18.2996C234.6 15.1996 229.5 15.1996 226.4 18.2996C223.3 21.3996 223.3 26.4996 226.4 29.5996L468.7 272Z" fill="black"/>
</svg>
